<?xml version="1.0" encoding="UTF-8"?>
<svg width="146px" height="180px" viewBox="0 0 146 180" version="1.1" xmlns="http://www.w3.org/2000/svg" xmlns:xlink="http://www.w3.org/1999/xlink">
    <!-- Generator: Sketch 55.2 (78181) - https://sketchapp.com -->
    <title>暂无内容呢～</title>
    <desc>Created with Sketch.</desc>
    <g id="404页面" stroke="none" stroke-width="1" fill="none" fill-rule="evenodd">
        <g id="表格-暂无数据" transform="translate(-701.000000, -438.000000)">
            <g id="暂无内容呢～" transform="translate(701.000000, 438.000000)">
                <ellipse id="椭圆形" fill="#EDEDED" cx="80.5" cy="137" rx="65.5" ry="5"></ellipse>
                <g id="编组" fill-rule="nonzero">
                    <path d="M39.5416667,0.543396226 L135.536667,0.543396226 C141.0725,0.543396226 145.574167,4.9509434 145.574167,10.5056604 L145.574167,24.3924528 L131.643333,24.3924528 L131.643333,117.675472 C131.643333,123.230189 127.141667,127.637736 121.605833,127.637736 L27.5575,127.637736 C22.0216667,127.637736 17.52,123.169811 17.52,117.675472 L17.52,101.856604 L29.565,101.856604 L29.565,10.445283 C29.565,5.01132075 34.0666667,0.543396226 39.5416667,0.543396226 Z" id="路径" fill="#FFF8D9"></path>
                    <path d="M137.544167,4.46792453 C141.924167,4.46792453 145.574167,8.03018868 145.574167,12.4377358 L145.574167,24.3924528 L129.575,24.3924528 L129.575,12.4377358 C129.575,8.09056604 133.164167,4.46792453 137.544167,4.46792453 Z" id="路径" fill="#FFC6A2"></path>
                    <path d="M17.52,101.735849 L117.53,101.735849 L117.53,115.683019 C119.415833,119.788679 121.91,121.781132 124.83,121.781132 C127.628333,121.781132 130.305,120.271698 131.5825,117.675472 C131.5825,123.169811 127.080833,127.637736 121.545,127.637736 L27.5575,127.637736 C22.0216667,127.637736 17.52,123.169811 17.52,117.675472 L17.52,101.735849 L17.52,101.735849 Z" id="路径" fill="#FFC6A2"></path>
                    <path d="M53.5941667,24.3924528 L71.54,24.3924528 L71.54,25.7207547 L53.5941667,25.7207547 L53.5941667,24.3924528 Z M91.5541667,24.3924528 L109.5,24.3924528 L109.5,25.7207547 L91.4933333,25.7207547 L91.4933333,24.3924528 L91.5541667,24.3924528 Z" id="形状" fill="#333333"></path>
                    <polygon id="路径" fill="#333333" points="79.57 40.2113208 83.585 40.2113208 83.585 41.6 79.57 41.6"></polygon>
                    <path d="M45.5641667,58.0830189 L117.590833,58.0830189 L117.590833,74.0226415 L45.5641667,74.0226415 L45.5641667,58.0830189 Z M45.5641667,81.8716981 L117.590833,81.8716981 L117.590833,85.8566038 L45.5641667,85.8566038 L45.5641667,81.8716981 Z M45.5641667,93.8264151 L117.590833,93.8264151 L117.590833,97.8113208 L45.5641667,97.8113208 L45.5641667,93.8264151 Z" id="形状" fill="#FFFFFF"></path>
                    <path d="M75.555,40.6943396 C74.7641667,42.0226415 73.365,42.9886792 71.905,43.5320755 C67.7683333,44.3169811 63.6316667,44.4981132 59.495,44.0150943 C55.845,43.1698113 53.29,39.909434 53.4725,36.2264151 C53.5333333,31.6981132 56.5141667,30.4301887 60.5291667,30.4301887 C64.5441667,30.4301887 67.525,38.0377358 69.5325,39.4867925 C71.3575,40.3924528 73.4866667,40.8754717 75.555,40.6943396 Z" id="路径" fill="#FFFFFF"></path>
                    <polygon id="路径" fill="#333333" points="1.70333333 1.02641509 13.3833333 1.02641509 13.3833333 1.81132075 1.2775 9.84150943 9.00333333 9.66037736 9.00333333 10.445283 0.1825 10.445283 0.1825 9.66037736 12.1058333 1.81132075 1.6425 1.81132075 1.6425 1.02641509"></polygon>
                    <polygon id="路径" fill="#333333" points="7.54333333 17.2679245 19.2233333 17.2679245 19.2233333 18.0528302 7.1175 26.0830189 14.8433333 25.9018868 14.8433333 26.6867925 6.08333333 26.6867925 6.08333333 25.9018868 18.0066667 18.0528302 7.54333333 18.0528302"></polygon>
                </g>
                <text font-family="PingFangSC-Regular, PingFang SC" font-size="14" font-weight="normal" fill="#53627C">
                    <tspan x="43" y="178">暂无内容呢～</tspan>
                </text>
            </g>
        </g>
    </g>
</svg>